<svg width="142" height="18" viewBox="0 0 142 18" fill="none" xmlns="http://www.w3.org/2000/svg">
<path d="M12.9988 12.9423V1.62482H16.4188V17.3748H11.4913L4.58375 6.07982H4.20125V17.3748H0.78125V1.62482H5.39375V1.64732H5.70875L12.5938 12.9423H12.9988Z" fill="white"/>
<path d="M28.8613 4.75232H32.2812V17.3748H28.8613V15.5298H28.7038C27.8938 16.6548 26.7462 17.3748 24.4737 17.3748C19.1412 17.3748 19.0063 12.9198 19.0063 11.0748V4.75232H22.4037V11.0748C22.4037 12.0648 22.1788 14.4498 25.4638 14.4498C28.4113 14.4498 28.8613 12.5598 28.8613 10.8498V4.75232Z" fill="white"/>
<path d="M39.5262 7.67732V12.1548V12.4248C39.5262 14.2473 40.3362 13.9998 43.6212 13.8198V17.1498C43.6212 17.1498 42.9462 17.3748 39.5262 17.3748C36.0837 17.3748 36.0837 14.5623 36.0837 12.7398V7.67732H34.4188V4.79732H36.0837V1.15232H39.5262V4.79732H43.6212V7.67732H39.5262Z" fill="white"/>
<path d="M53.2541 4.75232C54.1541 4.75232 54.8966 4.95482 55.4816 5.08983L54.9416 8.30732C54.6266 8.21732 53.7491 8.03732 52.6691 8.03732C50.1266 8.03732 49.3841 10.0173 49.3841 11.7273V17.3748H45.9641V4.75232H49.3841V6.61982H49.5866C50.3066 5.40482 51.0716 4.75232 53.2541 4.75232Z" fill="white"/>
<path d="M60.7091 17.3748H57.3116V4.84232H60.7091V17.3748ZM60.7091 3.94233H57.3116V0.882324H60.7091V3.94233Z" fill="white"/>
<path d="M68.1637 7.67732V12.1548V12.4248C68.1637 14.2473 68.9737 13.9998 72.2587 13.8198V17.1498C72.2587 17.1498 71.5837 17.3748 68.1637 17.3748C64.7212 17.3748 64.7212 14.5623 64.7212 12.7398V7.67732H63.0562V4.79732H64.7212V1.15232H68.1637V4.79732H72.2587V7.67732H68.1637Z" fill="white"/>
<path d="M77.933 17.3748H74.5355V4.84232H77.933V17.3748ZM77.933 3.94233H74.5355V0.882324H77.933V3.94233Z" fill="white"/>
<path d="M87.3001 4.52732C91.1476 4.52732 94.3426 6.57482 94.3426 10.9623C94.3426 15.3948 91.1476 17.3748 87.3001 17.3748C83.4751 17.3748 80.2801 15.3273 80.2801 10.9623C80.2801 6.61982 83.4751 4.52732 87.3001 4.52732ZM87.3001 14.2698C89.4601 14.2698 90.9901 13.2348 90.9901 10.9623C90.9901 8.62232 89.4601 7.65482 87.3001 7.65482C85.1626 7.65482 83.6326 8.57732 83.6326 10.9623C83.6326 13.3248 85.1626 14.2698 87.3001 14.2698Z" fill="white"/>
<path d="M104.445 4.75232C109.777 4.75232 109.912 9.22982 109.912 11.0748V17.3748H106.515V11.0748C106.515 10.0848 106.717 7.69982 103.455 7.69982C100.485 7.69982 100.057 9.58982 100.057 11.2998V17.3748H96.6374V4.75232H100.057V6.61982H100.215C101.025 5.49482 102.172 4.75232 104.445 4.75232Z" fill="white"/>
<path d="M115.887 17.3748H112.489V4.84232H115.887V17.3748ZM115.887 3.94233H112.489V0.882324H115.887V3.94233Z" fill="white"/>
<path d="M124.719 9.72482C127.577 10.1523 130.817 10.6473 130.817 13.6398C130.817 16.7673 128.567 17.3748 124.697 17.3748C121.839 17.3748 119.882 16.8573 118.869 15.8448C117.992 14.9673 117.992 13.9098 118.014 13.2573V13.0098H121.524V13.1223C121.524 14.2023 122.334 14.6973 124.607 14.6973C125.979 14.6973 127.284 14.5173 127.284 13.6848C127.284 12.7398 126.069 12.5598 124.697 12.4023C124.517 12.3798 124.337 12.3573 124.157 12.3348C120.534 11.8623 118.284 11.0523 118.284 8.53232C118.284 6.77732 119.297 4.68482 124.157 4.68482C129.377 4.68482 130.479 7.00232 130.479 8.93732V9.04982H126.992V8.93732C126.992 7.94732 126.137 7.40732 124.157 7.40732C122.244 7.40732 121.839 8.10482 121.839 8.48733C121.839 9.04983 122.222 9.36482 124.427 9.70232L124.719 9.72482Z" fill="white"/>
<path d="M137.501 7.67732V12.1548V12.4248C137.501 14.2473 138.311 13.9998 141.596 13.8198V17.1498C141.596 17.1498 140.921 17.3748 137.501 17.3748C134.059 17.3748 134.059 14.5623 134.059 12.7398V7.67732H132.394V4.79732H134.059V1.15232H137.501V4.79732H141.596V7.67732H137.501Z" fill="white"/>
</svg>
